<svg width="166" height="40" viewBox="0 0 166 40" fill="none" xmlns="http://www.w3.org/2000/svg" data-cy="fuseIcon"><path d="M1.8893 40L25.8709 40C26.5069 40 27.1049 39.6976 27.4818 39.1854L40.737 21.1725C41.2513 20.4736 41.2562 19.5228 40.7492 18.8186L27.2 2.66859e-06L1.06237 38.4377C0.610917 39.1016 1.08644 40 1.8893 40Z" fill="#FD395E"></path><path d="M1.06238 1.56246L13.6 20L27.2 0.000145693L1.8893 0.000146784C1.08645 0.000146819 0.610921 0.898554 1.06238 1.56246Z" fill="url(#paint0_linear_2166_3583)"></path><path d="M19.1998 0.000146624L13.5998 20L27.1998 0.00014628L19.1998 0.000146624Z" fill="#8A0E25"></path><path d="M50.7913 17.3683H54.1127V12.3505H58.9162V9.99342H54.1127V7.26132H59.1305V4.90422H50.7913V17.3683Z" fill="#1C1C1C"></path><path d="M62.9458 17.3683H71.41V14.904H66.2672V4.90422H62.9458V17.3683Z" fill="#1C1C1C"></path><path d="M73.9932 17.3683H77.3681L78.3503 14.7076H83.0287L83.9573 17.3683H87.6001L82.7966 4.90422H78.7253L73.9932 17.3683ZM82.243 12.3505H79.1181L80.7252 7.47561H80.7609L82.243 12.3505Z" fill="#1C1C1C"></path><path d="M91.9743 17.3683H95.2957V7.36846H98.3671V4.90422H88.9029V7.36846H91.9743V17.3683Z" fill="#1C1C1C"></path><path d="M102.057 17.3683H105.379V4.90422H102.057V17.3683Z" fill="#1C1C1C"></path><path d="M109.914 17.3683H113.236V12.4398H113.932C115.164 12.4398 115.593 12.9755 116.271 15.1183L116.985 17.3683H120.45L119.235 13.9755C118.61 12.4577 118.539 11.5112 117.468 11.2255V11.1898C119.075 10.8148 119.86 9.70771 119.86 8.04702C119.86 5.90421 118.057 4.90422 115.843 4.90422H109.914V17.3683ZM113.236 7.26132H114.11C115.378 7.26132 116.539 7.47561 116.539 8.6363C116.539 10.047 115.182 10.0827 114.11 10.0827H113.236V7.26132Z" fill="#1C1C1C"></path><path d="M123.592 11.1363C123.592 15.1005 125.771 17.5826 129.842 17.5826C133.914 17.5826 136.092 15.1005 136.092 11.1363C136.092 7.13633 133.949 4.68994 129.842 4.68994C125.735 4.68994 123.592 7.13633 123.592 11.1363ZM127.021 11.1363C127.021 8.97558 127.824 7.15418 129.842 7.15418C131.86 7.15418 132.664 8.97558 132.664 11.1363C132.664 13.1898 131.86 15.1183 129.842 15.1183C127.824 15.1183 127.021 13.1898 127.021 11.1363Z" fill="#1C1C1C"></path><path d="M140.151 17.3683H143.205L143.098 8.85058H143.133L147.49 17.3683H151.615V4.90422H148.58L148.633 13.3684H148.598L144.383 4.90422H140.151V17.3683Z" fill="#1C1C1C"></path><path d="M155.889 17.0469C156.996 17.404 158.442 17.5826 159.603 17.5826C162.371 17.5826 165.085 16.7076 165.085 13.4755C165.085 8.97558 159.192 10.3327 159.192 8.31488C159.192 7.22561 160.585 7.15418 161.424 7.15418C162.371 7.15418 163.335 7.33275 164.192 7.7256L164.407 5.15422C163.567 4.86851 162.389 4.68994 161.192 4.68994C158.692 4.68994 155.764 5.51135 155.764 8.5113C155.764 13.0469 161.657 11.5827 161.657 13.9041C161.657 14.904 160.657 15.1183 159.603 15.1183C158.228 15.1183 157.032 14.7612 156.175 14.2969L155.889 17.0469Z" fill="#1C1C1C"></path><path d="M50.7665 35.0958H54.0879V30.0781H58.8914V27.721H54.0879V24.9889H59.1057V22.6318H50.7665V35.0958Z" fill="#FD395E"></path><path d="M73.6708 22.6318H70.3494V29.8102C70.3494 31.453 69.903 32.8459 68.2066 32.8459C66.5102 32.8459 66.0638 31.453 66.0638 29.8102V22.6318H62.7424V30.3638C62.7424 33.7744 64.9567 35.3101 68.2066 35.3101C71.4566 35.3101 73.6708 33.7744 73.6708 30.3638V22.6318Z" fill="#FD395E"></path><path d="M77.7007 34.7744C78.8079 35.1315 80.2543 35.3101 81.415 35.3101C84.1828 35.3101 86.897 34.4351 86.897 31.203C86.897 26.7031 81.0042 28.0602 81.0042 26.0424C81.0042 24.9531 82.3971 24.8817 83.2363 24.8817C84.1828 24.8817 85.147 25.0603 86.0042 25.4531L86.2184 22.8818C85.3792 22.596 84.2006 22.4175 83.0042 22.4175C80.5043 22.4175 77.5757 23.2389 77.5757 26.2388C77.5757 30.7745 83.4685 29.3102 83.4685 31.6316C83.4685 32.6316 82.4685 32.8459 81.415 32.8459C80.04 32.8459 78.8436 32.4887 77.9864 32.0244L77.7007 34.7744Z" fill="#FD395E"></path><path d="M90.9206 35.0958H99.9026V32.7387H94.242V29.9173H99.4026V27.5602H94.242V24.9889H99.7062V22.6318H90.9206V35.0958Z" fill="#FD395E"></path><defs><linearGradient id="paint0_linear_2166_3583" x1="-2.81733" y1="0.000149025" x2="27.7829" y2="10.3532" gradientUnits="userSpaceOnUse"><stop offset="0.03125" stop-color="#CA405A" stop-opacity="0.958429"></stop><stop offset="1" stop-color="#A2243B"></stop></linearGradient></defs></svg>